# xmcd
#
# Track frame offsets: 
#        150
#        30520
#        42460
#        63780
#        81525
#        104120
#        122032
#        137785
#        163182
#        180567
#
# Disc length: 2665 seconds
#
# Revision: 5
# Processed by: cddbd v1.5.2PL0 Copyright (c) Steve Scherf et al.
# Submitted via: ExactAudioCopy v0.99pb5
#
DISCID=8d0a670a
DTITLE=Big Joe Turner - The Bosses
DYEAR=1974
DGENRE=Blues
TTITLE0=The Honeydripper
TTITLE1=Honey Hush
TTITLE2=Cherry Red
TTITLE3=Night Time Is the Right Time
TTITLE4=Blues Around the Clock
TTITLE5=Since I Fell for You
TTITLE6=Flip, Flop and Fly
TTITLE7=Wee Baby Blues
TTITLE8=Good Mornin' Blues
TTITLE9=Roll 'em Pete
EXTD=Count Basie p, org - Joe Turner voc - Eddie "Lockjaw" Davis, Zoot S
EXTD=ims ts - Harry "Sweets" Edison tp - J. J. Johnson tb - Ray Brown b - 
EXTD=Irving Ashby g - Louis Bellson dr;
EXTT0=
EXTT1=
EXTT2=
EXTT3=
EXTT4=
EXTT5=
EXTT6=
EXTT7=
EXTT8=
EXTT9=
PLAYORDER=
